{
	"asset":{
		"generator":"Khronos glTF Blender I/O v3.5.30",
		"version":"2.0"
	},
	"extensionsUsed":[
		"KHR_materials_specular",
		"KHR_materials_ior"
	],
	"scene":0,
	"scenes":[
		{
			"name":"Scene",
			"nodes":[
				0
			]
		}
	],
	"nodes":[
		{
			"mesh":0,
			"name":"Ship",
			"rotation":[
				0.7071068286895752,
				0,
				0,
				0.7071068286895752
			],
			"translation":[
				0.0168825201690197,
				0.04253745079040527,
				-0.0010487698018550873
			]
		}
	],
	"materials":[
		{
			"doubleSided":true,
			"extensions":{
				"KHR_materials_specular":{
					"specularColorFactor":[
						0,
						0,
						0
					]
				},
				"KHR_materials_ior":{
					"ior":1.4500000476837158
				}
			},
			"name":"palette",
			"pbrMetallicRoughness":{
				"baseColorTexture":{
					"index":0
				},
				"metallicFactor":0
			}
		}
	],
	"meshes":[
		{
			"name":"Untitled",
			"primitives":[
				{
					"attributes":{
						"POSITION":0,
						"TEXCOORD_0":1,
						"NORMAL":2
					},
					"indices":3,
					"material":0
				}
			]
		}
	],
	"textures":[
		{
			"sampler":0,
			"source":0
		}
	],
	"images":[
		{
			"bufferView":4,
			"mimeType":"image/png",
			"name":"RedFighter"
		}
	],
	"accessors":[
		{
			"bufferView":0,
			"componentType":5126,
			"count":10584,
			"max":[
				3.999998092651367,
				3.818204879760742,
				1.1708755493164062
			],
			"min":[
				-4.000001907348633,
				-2.981795310974121,
				-1.0291242599487305
			],
			"type":"VEC3"
		},
		{
			"bufferView":1,
			"componentType":5126,
			"count":10584,
			"type":"VEC2"
		},
		{
			"bufferView":2,
			"componentType":5126,
			"count":10584,
			"type":"VEC3"
		},
		{
			"bufferView":3,
			"componentType":5123,
			"count":19812,
			"type":"SCALAR"
		}
	],
	"bufferViews":[
		{
			"buffer":0,
			"byteLength":127008,
			"byteOffset":0,
			"target":34962
		},
		{
			"buffer":0,
			"byteLength":84672,
			"byteOffset":127008,
			"target":34962
		},
		{
			"buffer":0,
			"byteLength":127008,
			"byteOffset":211680,
			"target":34962
		},
		{
			"buffer":0,
			"byteLength":39624,
			"byteOffset":338688,
			"target":34963
		},
		{
			"buffer":0,
			"byteLength":150,
			"byteOffset":378312
		}
	],
	"samplers":[
		{
			"magFilter":9729,
			"minFilter":9987
		}
	],
	"buffers":[
		{
			"byteLength":378464,
			"uri":"data:application/octet-stream;base64,"
		}
	]
}
